<svg xmlns="http://www.w3.org/2000/svg" viewBox="0 0 64 80" x="0px" y="0px"><g><path d="M57.4473,31.1055l-6-3A1,1,0,0,0,50,29v2H45.9658C45.6049,17.0092,37.89,10.5577,34,8.2021V7a3,3,0,0,0-6,0v.6435L10.5265,29H7a1,1,0,0,0-.707,1.707L7.5859,32,6.293,33.293A1,1,0,0,0,7,35h3.5265L28,56.3565V57a3,3,0,0,0,6,0V55.7979C37.89,53.4423,45.6049,46.9908,45.9658,33H50v2a1,1,0,0,0,1.4473.8945l6-3a1,1,0,0,0,0-1.789ZM28,10.801v.532a.9994.9994,0,0,0,.7075.9561c.1109.0344,10.8156,3.4931,11.2707,18.7109H17.4141L15.707,29.293A1,1,0,0,0,15,29H13.11ZM9.707,31.293,9.4141,31h5.1718l1,1-1,1H9.4141l.2929-.293A.9994.9994,0,0,0,9.707,31.293ZM13.11,35H15a1,1,0,0,0,.707-.293L17.4141,33H39.9788c-.4432,15.1476-10.8225,18.57-11.2713,18.7109A.9994.9994,0,0,0,28,52.667v.532ZM32.5073,54.3545a1,1,0,0,0-.5073.87V57a1,1,0,0,1-2,0V53.35c2.6743-1.1514,12-6.251,12-21.35S32.6743,11.8018,30,10.65V7a1,1,0,0,1,2,0V8.7754a1,1,0,0,0,.5073.87C35.9629,11.6016,44,17.6963,44,32S35.9629,52.3984,32.5073,54.3545ZM52,33.3818V30.6182L54.7642,32Z"/></g></svg>