<svg xmlns="http://www.w3.org/2000/svg" xmlns:xlink="http://www.w3.org/1999/xlink" version="1.1" x="0px" y="0px" viewBox="0 0 64 80" style="enable-background:new 0 0 64 64;" xml:space="preserve"><path d="M62.707,9.707C62.895,9.52,63,9.266,63,9V2c0-0.553-0.448-1-1-1h-7c-0.265,0-0.52,0.105-0.707,0.293L32,23.586L9.707,1.293  C9.52,1.105,9.265,1,9,1H2C1.448,1,1,1.447,1,2v7c0,0.266,0.105,0.52,0.293,0.707L23.586,32L18,37.586l-2.293-2.293  c-0.391-0.391-1.023-0.391-1.414,0l-4,4c-0.391,0.391-0.391,1.023,0,1.414L13.586,44L6,51.586l-0.293-0.293  c-0.391-0.391-1.023-0.391-1.414,0l-3,3c-0.391,0.391-0.391,1.023,0,1.414l7,7C8.488,62.902,8.744,63,9,63s0.512-0.098,0.707-0.293  l3-3c0.391-0.391,0.391-1.023,0-1.414L12.414,58L20,50.414l3.293,3.293C23.488,53.902,23.744,54,24,54s0.512-0.098,0.707-0.293l4-4  c0.391-0.391,0.391-1.023,0-1.414L26.414,46L32,40.414L37.586,46l-2.293,2.293c-0.391,0.391-0.391,1.023,0,1.414l4,4  C39.488,53.902,39.744,54,40,54s0.512-0.098,0.707-0.293L44,50.414L51.586,58l-0.293,0.293c-0.391,0.391-0.391,1.023,0,1.414l3,3  C54.488,62.902,54.744,63,55,63s0.512-0.098,0.707-0.293l7-7c0.391-0.391,0.391-1.023,0-1.414l-3-3  c-0.391-0.391-1.023-0.391-1.414,0L58,51.586L50.414,44l3.293-3.293c0.391-0.391,0.391-1.023,0-1.414l-4-4  c-0.391-0.391-1.023-0.391-1.414,0L46,37.586L40.414,32L62.707,9.707z M30.586,25L28.5,27.086L4.414,3h4.172L30.586,25z M3,8.586  V4.414L27.086,28.5L25,30.586L3,8.586z M55.414,3h4.172L21.5,41.086L19.414,39L55.414,3z M12,48.414L15.586,52L14,53.586L10.414,50  L12,48.414z M9,60.586L3.414,55L5,53.414L10.586,59L9,60.586z M7.414,53L9,51.414L12.586,55L11,56.586L7.414,53z M17,50.586  L13.414,47L15,45.414L18.586,49L17,50.586z M24,51.586L12.414,40L15,37.414L26.586,49L24,51.586z M22.914,42.5L61,4.414v4.172  l-36,36L22.914,42.5z M33.414,39l2.086-2.086l5.586,5.586L39,44.586L33.414,39z M48.414,52L52,48.414L53.586,50L50,53.586L48.414,52  z M60.586,55L55,60.586L53.414,59L59,53.414L60.586,55z M53,56.586L51.414,55L55,51.414L56.586,53L53,56.586z M50.586,47L47,50.586  L45.414,49L49,45.414L50.586,47z M49,37.414L51.586,40L40,51.586L37.414,49L49,37.414z M44.586,39L42.5,41.086L36.914,35.5  L39,33.414L44.586,39z"/></svg>