<svg xmlns="http://www.w3.org/2000/svg" xmlns:xlink="http://www.w3.org/1999/xlink" version="1.1" x="0px" y="0px" viewBox="0 0 64 80" style="enable-background:new 0 0 64 64;" xml:space="preserve"><g><path d="M13,53.6l-4.3-4.3c-0.4-0.4-1-0.4-1.4,0s-0.4,1,0,1.4l6,6c0.2,0.2,0.4,0.3,0.7,0.3c0.1,0,0.3,0,0.4-0.1   c0.4-0.2,0.6-0.5,0.6-0.9V46h4c0.3,0,0.5-0.1,0.7-0.3l5.3-5.3l1.6,1.6c-1.5,0.2-2.6,1.5-2.6,3c0,1.7,1.3,3,3,3h6c0.6,0,1-0.4,1-1   v-2.6l3.7-3.7c0.4-0.4,0.4-1,0-1.4L35.4,37H47c1.7,0,3-1.3,3-3s-1.3-3-3-3H15c0-0.6-0.4-1-1-1H8c-0.6,0-1,0.4-1,1s0.4,1,1,1h5V53.6   z M48,34c0,0.6-0.4,1-1,1H33.4l-2-2H47C47.6,33,48,33.4,48,34z M28.6,33l3.7,3.7c0,0,0,0,0,0l3.3,3.3L34,41.6V41   c0-0.3-0.1-0.5-0.3-0.7l-5.9-5.9c-0.4-0.4-1-0.4-1.4,0s-0.4,1,0,1.4l5.6,5.6V46h-5c-0.6,0-1-0.4-1-1s0.4-1,1-1h2   c0.4,0,0.8-0.2,0.9-0.6c0.2-0.4,0.1-0.8-0.2-1.1l-4-4c-0.4-0.4-1-0.4-1.4,0L18.6,44H15V33H28.6z"/><path d="M56,21c-1.7,0-3-1.3-3-3c0-0.6-0.4-1-1-1s-1,0.4-1,1c0,1.7-1.3,3-3,3c-0.6,0-1,0.4-1,1s0.4,1,1,1c1.7,0,3,1.3,3,3   c0,0.6,0.4,1,1,1s1-0.4,1-1c0-1.7,1.3-3,3-3c0.6,0,1-0.4,1-1S56.6,21,56,21z M52,23c-0.3-0.4-0.6-0.7-1-1c0.4-0.3,0.7-0.6,1-1   c0.3,0.4,0.6,0.7,1,1C52.6,22.3,52.3,22.6,52,23z"/><path d="M43,42c0-0.6-0.4-1-1-1s-1,0.4-1,1c0,1.7-1.3,3-3,3c-0.6,0-1,0.4-1,1s0.4,1,1,1c1.7,0,3,1.3,3,3c0,0.6,0.4,1,1,1s1-0.4,1-1   c0-1.7,1.3-3,3-3c0.6,0,1-0.4,1-1s-0.4-1-1-1C44.3,45,43,43.7,43,42z M42,47c-0.3-0.4-0.6-0.7-1-1c0.4-0.3,0.7-0.6,1-1   c0.3,0.4,0.6,0.7,1,1C42.6,46.3,42.3,46.6,42,47z"/><path d="M33,8c0-0.6-0.4-1-1-1s-1,0.4-1,1c0,1.7-1.3,3-3,3c-0.6,0-1,0.4-1,1s0.4,1,1,1c1.7,0,3,1.3,3,3c0,0.6,0.4,1,1,1s1-0.4,1-1   c0-1.7,1.3-3,3-3c0.6,0,1-0.4,1-1s-0.4-1-1-1C34.3,11,33,9.7,33,8z M32,13c-0.3-0.4-0.6-0.7-1-1c0.4-0.3,0.7-0.6,1-1   c0.3,0.4,0.6,0.7,1,1C32.6,12.3,32.3,12.6,32,13z"/></g></svg>