<svg xmlns="http://www.w3.org/2000/svg" xmlns:xlink="http://www.w3.org/1999/xlink" version="1.1" x="0px" y="0px" viewBox="0 0 64 80" style="enable-background:new 0 0 64 64;" xml:space="preserve"><path d="M41.324,5.115l-0.219,0.438c-9.155,18.309-17.684,27.61-20.096,30.042L19.415,34c-1.289-1.289-3.541-1.289-4.829,0  L14,34.586c-0.645,0.646-1,1.503-1,2.414s0.355,1.769,1,2.414L15.586,41L2.536,54.05C1.545,55.04,1,56.356,1,57.758  C1,60.648,3.352,63,6.243,63c1.399,0,2.716-0.545,3.707-1.535L23,48.414L24.586,50c0.644,0.645,1.501,1,2.414,1s1.77-0.355,2.414-1  L30,49.414c0.645-0.646,1-1.503,1-2.414s-0.355-1.769-1-2.414l-0.029-0.029C45.51,35.134,57.107,20.489,62.678,3.158l0.795-2.473  L41.324,5.115z M13,51H8.414L13,46.414V51z M13,53v2H6.414l-1-1l1-1H13z M11.586,57L10,58.586L8.414,57H11.586z M15,44.414l2-2  v9.172l-2,2V44.414z M6.243,61C4.455,61,3,59.546,3,57.758c0-0.867,0.337-1.681,0.95-2.293L4,55.414L8.586,60l-0.05,0.05  C7.923,60.663,7.108,61,6.243,61z M19,49.586v-5.172L21.586,47L19,49.586z M28.586,48L28,48.586c-0.533,0.535-1.466,0.535-1.999,0  L15.415,38C15.147,37.732,15,37.378,15,37s0.147-0.732,0.414-1L16,35.414C16.267,35.146,16.622,35,17,35s0.733,0.146,1,0.414  L28.585,46C28.853,46.268,29,46.622,29,47S28.853,47.732,28.586,48z M22.428,37.014c2.53-2.522,10.968-11.691,20.247-30.129  l8.938-1.788c-4.059,13-11.854,24.268-22.641,32.658l-0.586,0.456c-0.226,0.176-0.366,0.44-0.384,0.728  c-0.018,0.286,0.088,0.565,0.291,0.769l2.19,2.189c-0.646,0.414-1.304,0.812-1.965,1.207L22.428,37.014z M32.177,40.762  l-1.669-1.669c11.238-8.841,19.288-20.734,23.334-34.441l6.681-1.336C55.414,18.629,45.45,31.732,32.177,40.762z"/></svg>