<svg xmlns="http://www.w3.org/2000/svg" xmlns:xlink="http://www.w3.org/1999/xlink" version="1.1" x="0px" y="0px" viewBox="0 0 64 80" style="enable-background:new 0 0 64 64;" xml:space="preserve"><g><path d="M33,38h-3V12.771c0-4.524-2.714-8.533-6.915-10.214l-3.714-1.485c-0.308-0.123-0.658-0.084-0.932,0.101   C18.165,1.358,18,1.668,18,2v36h-3c-2.757,0-5,2.243-5,5s2.243,5,5,5c1.13,0,2.162-0.391,3-1.026V57h-1c-0.552,0-1,0.447-1,1v4   c0,0.553,0.448,1,1,1h14c0.552,0,1-0.447,1-1v-4c0-0.553-0.448-1-1-1h-1V46.974C30.838,47.609,31.87,48,33,48c2.757,0,5-2.243,5-5   S35.757,38,33,38z M20,3.477l2.342,0.938C25.779,5.788,28,9.068,28,12.771V38h-3V22h-2v16h-3V3.477z M28,53h-8v-2h8V53z M28,49h-8   v-5h8V49z M30,61H18v-2h12V61z M20,57v-2h8v2H20z M33,46c-1.302,0-2.402-0.839-2.816-2H32v-2H16v2h1.816   c-0.414,1.161-1.514,2-2.816,2c-1.654,0-3-1.346-3-3s1.346-3,3-3h18c1.654,0,3,1.346,3,3S34.654,46,33,46z"/><path d="M53.819,11.427l-7-10c-0.374-0.535-1.265-0.535-1.639,0l-7,10c-0.159,0.228-0.217,0.511-0.159,0.783L40.763,25H39v2h3v30   h-1c-0.552,0-1,0.447-1,1v4c0,0.553,0.448,1,1,1h10c0.552,0,1-0.447,1-1v-4c0-0.553-0.448-1-1-1h-1V27h3v-2h-1.763l2.741-12.79   C54.036,11.938,53.979,11.654,53.819,11.427z M48,53h-4v-2h4V53z M48,49h-4V35h4V49z M48,33h-4v-2h4V33z M50,61h-8v-2h8V61z M44,57   v-2h4v2H44z M48,29h-4v-2h4V29z M49.191,25H47V12h-2v13h-2.191l-2.739-12.783L46,3.744l5.931,8.473L49.191,25z"/></g></svg>